# MagicaVoxel @ Ephtracy

# group
o CupboardBigDoor

# material
mtllib WoodPile.mtl
usemtl palette

# normals
vn -1 0 0
vn 1 0 0
vn 0 0 1
vn 0 0 -1
vn 0 -1 0
vn 0 1 0

# texcoords
vt 0.177734 0.5
vt 0.181641 0.5
vt 0.197266 0.5
vt 0.212891 0.5
vt 0.224609 0.5
vt 0.248047 0.5

# verts
v -0.7 0 0.6
v -0.7 0 -0.1
v -0.7 0 -0.3
v -0.7 0 -0.5
v -0.7 0.1 0.6
v -0.7 0.1 -0.1
v -0.7 0.2 -0.3
v -0.7 0.2 -0.5
v -0.6 0 -0.2
v -0.6 0 -0.3
v -0.6 0 -0.5
v -0.6 0 -0.6
v -0.6 0.1 0.6
v -0.6 0.1 0
v -0.6 0.2 0.6
v -0.6 0.2 0
v -0.6 0.2 -0.2
v -0.6 0.2 -0.3
v -0.6 0.2 -0.5
v -0.6 0.2 -0.6
v -0.5 0.1 0
v -0.5 0.1 -0.1
v -0.5 0.2 0
v -0.5 0.2 -0.1
v -0.4 0.2 0.6
v -0.4 0.2 -0.1
v -0.4 0.2 -0.2
v -0.4 0.2 -0.3
v -0.4 0.2 -0.5
v -0.4 0.2 -0.6
v -0.4 0.2 -0.8
v -0.4 0.4 0.6
v -0.4 0.4 -0.8
v -0.3 0.1 0.6
v -0.3 0.1 0.4
v -0.3 0.1 0.1
v -0.3 0.1 -0.1
v -0.3 0.1 -0.2
v -0.3 0.1 -0.6
v -0.3 0.1 -0.8
v -0.3 0.2 0.6
v -0.3 0.2 0.4
v -0.3 0.2 0.1
v -0.3 0.2 -0.2
v -0.3 0.2 -0.6
v -0.3 0.2 -0.8
v -0.3 0.4 0.6
v -0.3 0.4 -0.8
v -0.3 0.5 0.6
v -0.3 0.5 -0.8
v -0.2 0.1 0.7
v -0.2 0.1 0.6
v -0.2 0.2 0.6
v -0.2 0.3 0.7
v -0.2 0.3 0.6
v -0.2 0.5 0.3
v -0.2 0.5 -0.2
v -0.2 0.7 0.3
v -0.2 0.7 -0.2
v -0.1 0 0.7
v -0.1 0 -0.7
v -0.1 0.1 0.7
v -0.1 0.1 -0.7
v -0.1 0.3 0.7
v -0.1 0.3 0.6
v -0.1 0.4 0.7
v -0.1 0.4 0.6
v -0.1 0.4 0.3
v -0.1 0.4 0.2
v -0.1 0.4 0.1
v -0.1 0.4 -0.2
v -0.1 0.5 0.3
v -0.1 0.5 0.2
v -0.1 0.5 0.1
v -0.1 0.5 -0.2
v -0.1 0.7 0.3
v -0.1 0.7 -0.2
v -0.1 0.8 0.3
v -0.1 0.8 -0.2
v 0.2 0 0.7
v 0.2 0 -0.7
v 0.2 0.1 0.7
v 0.2 0.1 -0.7
v 0.2 0.4 0.4
v 0.2 0.4 0.3
v 0.2 0.4 -0.2
v 0.2 0.4 -0.4
v 0.2 0.5 0.4
v 0.2 0.5 0.3
v 0.2 0.5 -0.2
v 0.2 0.5 -0.4
v 0.3 0.1 0.7
v 0.3 0.1 0.4
v 0.3 0.1 -0.4
v 0.3 0.1 -0.7
v 0.3 0.2 0.7
v 0.3 0.2 0.4
v 0.3 0.2 -0.4
v 0.3 0.2 -0.7
v 0.4 0.1 -0.1
v 0.4 0.1 -0.2
v 0.4 0.2 -0.1
v 0.4 0.2 -0.2
v -0.4 0.1 0.6
v -0.4 0.1 -0.1
v -0.4 0.2 0.6
v -0.4 0.2 -0.1
v -0.3 0 0.6
v -0.3 0 -0.1
v -0.3 0 -0.2
v -0.3 0 -0.3
v -0.3 0 -0.5
v -0.3 0 -0.6
v -0.3 0.1 0.6
v -0.3 0.1 0.4
v -0.3 0.1 0.1
v -0.3 0.1 -0.1
v -0.3 0.1 -0.2
v -0.3 0.1 -0.3
v -0.3 0.1 -0.5
v -0.3 0.1 -0.6
v -0.2 0 -0.3
v -0.2 0 -0.5
v -0.2 0.1 -0.3
v -0.2 0.1 -0.5
v -0.2 0.1 -0.7
v -0.2 0.1 -0.8
v -0.2 0.2 -0.7
v -0.2 0.2 -0.8
v -0.2 0.4 0.6
v -0.2 0.4 -0.8
v -0.2 0.5 0.6
v -0.2 0.5 0.3
v -0.2 0.5 -0.2
v -0.2 0.5 -0.8
v -0.1 0.2 -0.7
v -0.1 0.2 -0.8
v -0.1 0.3 -0.7
v -0.1 0.4 -0.7
v -0.1 0.4 -0.8
v 0.1 0 0.7
v 0.1 0 -0.7
v 0.1 0.1 0.7
v 0.1 0.1 -0.7
v 0.1 0.3 0.7
v 0.1 0.3 0.4
v 0.1 0.3 -0.4
v 0.1 0.3 -0.7
v 0.1 0.4 0.7
v 0.1 0.4 0.4
v 0.1 0.4 -0.4
v 0.1 0.4 -0.7
v 0.2 0.1 0.7
v 0.2 0.1 0.4
v 0.2 0.1 -0.4
v 0.2 0.1 -0.7
v 0.2 0.2 0.4
v 0.2 0.2 -0.4
v 0.2 0.3 0.7
v 0.2 0.3 0.4
v 0.2 0.3 -0.4
v 0.2 0.3 -0.7
v 0.2 0.7 0.3
v 0.2 0.7 -0.2
v 0.2 0.8 0.3
v 0.2 0.8 -0.2
v 0.3 0.1 -0.1
v 0.3 0.1 -0.2
v 0.3 0.2 -0.1
v 0.3 0.2 -0.2
v 0.3 0.4 0.4
v 0.3 0.4 -0.4
v 0.3 0.5 0.4
v 0.3 0.5 0.3
v 0.3 0.5 -0.2
v 0.3 0.5 -0.4
v 0.3 0.7 0.3
v 0.3 0.7 -0.2
v 0.4 0.2 0.4
v 0.4 0.2 -0.4
v 0.4 0.4 0.4
v 0.4 0.4 -0.4
v 0.5 0.1 0.7
v 0.5 0.1 -0.7
v 0.5 0.2 0.7
v 0.5 0.2 -0.7
v 0.6 0 0.7
v 0.6 0 -0.7
v 0.6 0.1 0.7
v 0.6 0.1 -0.7
v -0.2 0.1 0.7
v -0.2 0.3 0.7
v -0.1 0 0.7
v -0.1 0.1 0.7
v -0.1 0.3 0.7
v -0.1 0.4 0.7
v 0.1 0 0.7
v 0.1 0.1 0.7
v 0.1 0.3 0.7
v 0.1 0.4 0.7
v 0.2 0 0.7
v 0.2 0.1 0.7
v 0.2 0.3 0.7
v 0.3 0 0.7
v 0.3 0.1 0.7
v 0.3 0.2 0.7
v 0.5 0 0.7
v 0.5 0.1 0.7
v 0.5 0.2 0.7
v 0.6 0 0.7
v 0.6 0.1 0.7
v -0.7 0 0.6
v -0.7 0.1 0.6
v -0.6 0 0.6
v -0.6 0.1 0.6
v -0.6 0.2 0.6
v -0.4 0 0.6
v -0.4 0.1 0.6
v -0.4 0.2 0.6
v -0.4 0.4 0.6
v -0.3 0 0.6
v -0.3 0.1 0.6
v -0.3 0.2 0.6
v -0.3 0.4 0.6
v -0.3 0.5 0.6
v -0.2 0.1 0.6
v -0.2 0.2 0.6
v -0.2 0.3 0.6
v -0.2 0.4 0.6
v -0.2 0.5 0.6
v -0.1 0.3 0.6
v -0.1 0.4 0.6
v 0.1 0.3 0.4
v 0.1 0.4 0.4
v 0.2 0.1 0.4
v 0.2 0.2 0.4
v 0.2 0.3 0.4
v 0.2 0.4 0.4
v 0.2 0.5 0.4
v 0.3 0.1 0.4
v 0.3 0.2 0.4
v 0.3 0.4 0.4
v 0.3 0.5 0.4
v 0.4 0.2 0.4
v 0.4 0.4 0.4
v -0.2 0.5 0.3
v -0.2 0.7 0.3
v -0.1 0.4 0.3
v -0.1 0.5 0.3
v -0.1 0.7 0.3
v -0.1 0.8 0.3
v 0.1 0.4 0.3
v 0.2 0.4 0.3
v 0.2 0.5 0.3
v 0.2 0.7 0.3
v 0.2 0.8 0.3
v 0.3 0.5 0.3
v 0.3 0.7 0.3
v -0.6 0 -0.2
v -0.6 0.2 -0.2
v -0.4 0.2 -0.2
v -0.3 0 -0.2
v -0.3 0.1 -0.2
v -0.3 0.2 -0.2
v 0.3 0.1 -0.2
v 0.3 0.2 -0.2
v 0.4 0.1 -0.2
v 0.4 0.2 -0.2
v -0.7 0 -0.3
v -0.7 0.2 -0.3
v -0.6 0 -0.3
v -0.6 0.2 -0.3
v -0.3 0 -0.3
v -0.3 0.1 -0.3
v -0.2 0 -0.3
v -0.2 0.1 -0.3
v -0.6 0.1 0
v -0.6 0.2 0
v -0.5 0.1 0
v -0.5 0.2 0
v -0.7 0 -0.1
v -0.7 0.1 -0.1
v -0.6 0 -0.1
v -0.6 0.1 -0.1
v -0.5 0.1 -0.1
v -0.5 0.2 -0.1
v -0.4 0 -0.1
v -0.4 0.1 -0.1
v -0.4 0.2 -0.1
v -0.3 0 -0.1
v -0.3 0.1 -0.1
v 0.3 0.1 -0.1
v 0.3 0.2 -0.1
v 0.4 0.1 -0.1
v 0.4 0.2 -0.1
v -0.2 0.5 -0.2
v -0.2 0.7 -0.2
v -0.1 0.4 -0.2
v -0.1 0.5 -0.2
v -0.1 0.7 -0.2
v -0.1 0.8 -0.2
v 0.1 0.4 -0.2
v 0.2 0.4 -0.2
v 0.2 0.5 -0.2
v 0.2 0.7 -0.2
v 0.2 0.8 -0.2
v 0.3 0.5 -0.2
v 0.3 0.7 -0.2
v 0.1 0.3 -0.4
v 0.1 0.4 -0.4
v 0.2 0.1 -0.4
v 0.2 0.2 -0.4
v 0.2 0.3 -0.4
v 0.2 0.4 -0.4
v 0.2 0.5 -0.4
v 0.3 0.1 -0.4
v 0.3 0.2 -0.4
v 0.3 0.4 -0.4
v 0.3 0.5 -0.4
v 0.4 0.2 -0.4
v 0.4 0.4 -0.4
v -0.7 0 -0.5
v -0.7 0.2 -0.5
v -0.6 0 -0.5
v -0.6 0.2 -0.5
v -0.3 0 -0.5
v -0.3 0.1 -0.5
v -0.2 0 -0.5
v -0.2 0.1 -0.5
v -0.6 0 -0.6
v -0.6 0.2 -0.6
v -0.4 0.2 -0.6
v -0.3 0 -0.6
v -0.3 0.1 -0.6
v -0.3 0.2 -0.6
v -0.2 0.1 -0.7
v -0.2 0.2 -0.7
v -0.1 0 -0.7
v -0.1 0.1 -0.7
v -0.1 0.2 -0.7
v -0.1 0.3 -0.7
v -0.1 0.4 -0.7
v 0.1 0 -0.7
v 0.1 0.1 -0.7
v 0.1 0.3 -0.7
v 0.1 0.4 -0.7
v 0.2 0 -0.7
v 0.2 0.1 -0.7
v 0.2 0.3 -0.7
v 0.3 0 -0.7
v 0.3 0.1 -0.7
v 0.3 0.2 -0.7
v 0.5 0 -0.7
v 0.5 0.1 -0.7
v 0.5 0.2 -0.7
v 0.6 0 -0.7
v 0.6 0.1 -0.7
v -0.4 0.2 -0.8
v -0.4 0.4 -0.8
v -0.3 0.1 -0.8
v -0.3 0.2 -0.8
v -0.3 0.4 -0.8
v -0.3 0.5 -0.8
v -0.2 0.1 -0.8
v -0.2 0.2 -0.8
v -0.2 0.4 -0.8
v -0.2 0.5 -0.8
v -0.1 0.2 -0.8
v -0.1 0.4 -0.8
v -0.1 0 0.7
v 0.1 0 0.7
v 0.2 0 0.7
v 0.3 0 0.7
v 0.5 0 0.7
v 0.6 0 0.7
v -0.7 0 0.6
v -0.6 0 0.6
v -0.4 0 0.6
v -0.3 0 0.6
v 0.3 0 0.6
v 0.4 0 0.6
v 0.5 0 0.6
v -0.6 0 0.5
v -0.4 0 0.5
v 0.4 0 0.5
v 0.5 0 0.5
v 0.4 0 0.2
v 0.5 0 0.2
v 0.4 0 0.1
v 0.5 0 0.1
v -0.6 0 0
v -0.4 0 0
v 0.4 0 0
v 0.5 0 0
v -0.7 0 -0.1
v -0.6 0 -0.1
v -0.4 0 -0.1
v -0.3 0 -0.1
v -0.6 0 -0.2
v -0.3 0 -0.2
v -0.7 0 -0.3
v -0.6 0 -0.3
v -0.3 0 -0.3
v -0.2 0 -0.3
v 0.4 0 -0.4
v 0.5 0 -0.4
v -0.7 0 -0.5
v -0.6 0 -0.5
v -0.3 0 -0.5
v -0.2 0 -0.5
v -0.6 0 -0.6
v -0.3 0 -0.6
v 0.3 0 -0.6
v 0.5 0 -0.6
v -0.1 0 -0.7
v 0.1 0 -0.7
v 0.2 0 -0.7
v 0.3 0 -0.7
v 0.5 0 -0.7
v 0.6 0 -0.7
v -0.2 0.1 0.7
v -0.1 0.1 0.7
v 0.1 0.1 0.7
v 0.2 0.1 0.7
v -0.3 0.1 0.6
v -0.2 0.1 0.6
v -0.3 0.1 0.4
v -0.2 0.1 0.4
v -0.3 0.1 0.1
v -0.2 0.1 0.1
v -0.3 0.1 -0.1
v -0.3 0.1 -0.2
v -0.3 0.1 -0.3
v -0.2 0.1 -0.3
v -0.3 0.1 -0.5
v -0.2 0.1 -0.5
v -0.3 0.1 -0.6
v -0.2 0.1 -0.7
v -0.1 0.1 -0.7
v 0.1 0.1 -0.7
v 0.2 0.1 -0.7
v -0.3 0.1 -0.8
v -0.2 0.1 -0.8
v -0.4 0.2 0.6
v -0.3 0.2 0.6
v -0.3 0.2 0.4
v -0.3 0.2 0.1
v -0.4 0.2 -0.1
v 0.3 0.2 -0.1
v 0.4 0.2 -0.1
v -0.4 0.2 -0.2
v -0.3 0.2 -0.2
v 0.3 0.2 -0.2
v 0.4 0.2 -0.2
v -0.4 0.2 -0.6
v -0.3 0.2 -0.6
v -0.2 0.2 -0.7
v -0.1 0.2 -0.7
v -0.4 0.2 -0.8
v -0.3 0.2 -0.8
v -0.2 0.2 -0.8
v -0.1 0.2 -0.8
v -0.2 0.5 0.3
v -0.1 0.5 0.3
v -0.1 0.5 0.2
v -0.1 0.5 0.1
v -0.2 0.5 -0.2
v -0.1 0.5 -0.2
v 0.2 0.1 0.7
v 0.3 0.1 0.7
v 0.5 0.1 0.7
v 0.6 0.1 0.7
v -0.7 0.1 0.6
v -0.6 0.1 0.6
v -0.4 0.1 0.6
v -0.3 0.1 0.6
v -0.3 0.1 0.4
v 0.2 0.1 0.4
v 0.3 0.1 0.4
v -0.3 0.1 0.1
v -0.6 0.1 0
v -0.5 0.1 0
v -0.7 0.1 -0.1
v -0.6 0.1 -0.1
v -0.5 0.1 -0.1
v -0.4 0.1 -0.1
v -0.3 0.1 -0.1
v 0.3 0.1 -0.1
v 0.4 0.1 -0.1
v 0.3 0.1 -0.2
v 0.4 0.1 -0.2
v 0.2 0.1 -0.4
v 0.3 0.1 -0.4
v 0.2 0.1 -0.7
v 0.3 0.1 -0.7
v 0.5 0.1 -0.7
v 0.6 0.1 -0.7
v 0.3 0.2 0.7
v 0.5 0.2 0.7
v -0.6 0.2 0.6
v -0.4 0.2 0.6
v 0.3 0.2 0.4
v 0.4 0.2 0.4
v -0.6 0.2 0
v -0.5 0.2 0
v -0.5 0.2 -0.1
v -0.4 0.2 -0.1
v -0.6 0.2 -0.2
v -0.4 0.2 -0.2
v -0.7 0.2 -0.3
v -0.6 0.2 -0.3
v -0.5 0.2 -0.3
v -0.4 0.2 -0.3
v 0.3 0.2 -0.4
v 0.4 0.2 -0.4
v -0.7 0.2 -0.5
v -0.6 0.2 -0.5
v -0.5 0.2 -0.5
v -0.4 0.2 -0.5
v -0.6 0.2 -0.6
v -0.4 0.2 -0.6
v 0.3 0.2 -0.7
v 0.5 0.2 -0.7
v -0.2 0.3 0.7
v -0.1 0.3 0.7
v 0.1 0.3 0.7
v 0.2 0.3 0.7
v -0.2 0.3 0.6
v -0.1 0.3 0.6
v 0.1 0.3 0.4
v 0.2 0.3 0.4
v 0.1 0.3 -0.4
v 0.2 0.3 -0.4
v 0.1 0.3 -0.7
v 0.2 0.3 -0.7
v -0.1 0.4 0.7
v 0.1 0.4 0.7
v -0.4 0.4 0.6
v -0.3 0.4 0.6
v -0.2 0.4 0.6
v -0.1 0.4 0.6
v 0.1 0.4 0.4
v 0.2 0.4 0.4
v 0.3 0.4 0.4
v 0.4 0.4 0.4
v -0.1 0.4 0.3
v 0.1 0.4 0.3
v 0.2 0.4 0.3
v -0.1 0.4 0.2
v -0.1 0.4 0.1
v -0.1 0.4 -0.2
v 0.1 0.4 -0.2
v 0.2 0.4 -0.2
v 0.1 0.4 -0.4
v 0.2 0.4 -0.4
v 0.3 0.4 -0.4
v 0.4 0.4 -0.4
v -0.1 0.4 -0.7
v 0.1 0.4 -0.7
v -0.4 0.4 -0.8
v -0.3 0.4 -0.8
v -0.2 0.4 -0.8
v -0.1 0.4 -0.8
v -0.3 0.5 0.6
v -0.2 0.5 0.6
v 0.2 0.5 0.4
v 0.3 0.5 0.4
v -0.2 0.5 0.3
v 0.2 0.5 0.3
v 0.3 0.5 0.3
v -0.2 0.5 -0.2
v 0.2 0.5 -0.2
v 0.3 0.5 -0.2
v 0.2 0.5 -0.4
v 0.3 0.5 -0.4
v -0.3 0.5 -0.8
v -0.2 0.5 -0.8
v -0.2 0.7 0.3
v -0.1 0.7 0.3
v 0.2 0.7 0.3
v 0.3 0.7 0.3
v -0.2 0.7 -0.2
v -0.1 0.7 -0.2
v 0.2 0.7 -0.2
v 0.3 0.7 -0.2
v -0.1 0.8 0.3
v 0.2 0.8 0.3
v -0.1 0.8 -0.2
v 0.2 0.8 -0.2

# faces
f 5/2/1 2/2/1 1/2/1
f 6/2/1 2/2/1 5/2/1
f 7/1/1 4/1/1 3/1/1
f 8/1/1 4/1/1 7/1/1
f 15/2/1 14/2/1 13/2/1
f 16/2/1 14/2/1 15/2/1
f 17/1/1 10/1/1 9/1/1
f 18/1/1 10/1/1 17/1/1
f 19/1/1 12/1/1 11/1/1
f 20/1/1 12/1/1 19/1/1
f 23/2/1 22/2/1 21/2/1
f 24/2/1 22/2/1 23/2/1
f 32/1/1 26/1/1 25/1/1
f 32/1/1 31/1/1 30/1/1
f 32/1/1 30/1/1 29/1/1
f 32/1/1 29/1/1 28/1/1
f 32/1/1 28/1/1 27/1/1
f 32/1/1 27/1/1 26/1/1
f 33/1/1 31/1/1 32/1/1
f 41/1/1 35/1/1 34/1/1
f 42/3/1 36/3/1 35/3/1
f 42/1/1 35/1/1 41/1/1
f 43/1/1 37/1/1 36/1/1
f 43/3/1 36/3/1 42/3/1
f 43/1/1 38/1/1 37/1/1
f 44/1/1 38/1/1 43/1/1
f 45/1/1 40/1/1 39/1/1
f 46/1/1 40/1/1 45/1/1
f 49/1/1 48/1/1 47/1/1
f 50/1/1 48/1/1 49/1/1
f 53/2/1 52/2/1 51/2/1
f 54/2/1 53/2/1 51/2/1
f 55/2/1 53/2/1 54/2/1
f 58/2/1 57/2/1 56/2/1
f 59/2/1 57/2/1 58/2/1
f 62/2/1 61/2/1 60/2/1
f 63/2/1 61/2/1 62/2/1
f 66/2/1 65/2/1 64/2/1
f 67/2/1 65/2/1 66/2/1
f 72/2/1 69/2/1 68/2/1
f 73/3/1 70/3/1 69/3/1
f 73/2/1 69/2/1 72/2/1
f 74/2/1 71/2/1 70/2/1
f 74/3/1 70/3/1 73/3/1
f 75/2/1 71/2/1 74/2/1
f 78/2/1 77/2/1 76/2/1
f 79/2/1 77/2/1 78/2/1
f 82/1/1 81/1/1 80/1/1
f 83/1/1 81/1/1 82/1/1
f 88/1/1 85/1/1 84/1/1
f 89/1/1 85/1/1 88/1/1
f 90/1/1 87/1/1 86/1/1
f 91/1/1 87/1/1 90/1/1
f 96/1/1 93/1/1 92/1/1
f 97/1/1 93/1/1 96/1/1
f 98/1/1 95/1/1 94/1/1
f 99/1/1 95/1/1 98/1/1
f 102/1/1 101/1/1 100/1/1
f 103/1/1 101/1/1 102/1/1
f 104/2/2 105/2/2 106/2/2
f 106/2/2 105/2/2 107/2/2
f 108/2/2 109/2/2 114/2/2
f 114/2/2 109/2/2 115/2/2
f 115/2/2 109/2/2 116/2/2
f 116/2/2 109/2/2 117/2/2
f 110/1/2 111/1/2 118/1/2
f 118/1/2 111/1/2 119/1/2
f 112/1/2 113/1/2 120/1/2
f 120/1/2 113/1/2 121/1/2
f 122/1/2 123/1/2 124/1/2
f 124/1/2 123/1/2 125/1/2
f 126/1/2 127/1/2 128/1/2
f 128/1/2 127/1/2 129/1/2
f 130/1/2 131/1/2 132/1/2
f 132/1/2 131/1/2 133/1/2
f 133/1/2 131/1/2 134/1/2
f 134/1/2 131/1/2 135/1/2
f 136/1/2 137/1/2 138/1/2
f 138/1/2 137/1/2 139/1/2
f 139/1/2 137/1/2 140/1/2
f 141/2/2 142/2/2 143/2/2
f 143/2/2 142/2/2 144/2/2
f 145/2/2 146/2/2 149/2/2
f 149/2/2 146/2/2 150/2/2
f 147/2/2 148/2/2 151/2/2
f 151/2/2 148/2/2 152/2/2
f 153/2/2 154/2/2 157/2/2
f 155/2/2 156/2/2 158/2/2
f 153/2/2 157/2/2 159/2/2
f 159/2/2 157/2/2 160/2/2
f 158/2/2 156/2/2 161/2/2
f 161/2/2 156/2/2 162/2/2
f 163/2/2 164/2/2 165/2/2
f 165/2/2 164/2/2 166/2/2
f 167/1/2 168/1/2 169/1/2
f 169/1/2 168/1/2 170/1/2
f 171/1/2 172/1/2 173/1/2
f 173/1/2 172/1/2 174/1/2
f 174/1/2 172/1/2 175/1/2
f 175/1/2 172/1/2 176/1/2
f 174/2/2 175/2/2 177/2/2
f 177/2/2 175/2/2 178/2/2
f 179/1/2 180/1/2 181/1/2
f 181/1/2 180/1/2 182/1/2
f 183/1/2 184/1/2 185/1/2
f 185/1/2 184/1/2 186/1/2
f 187/1/2 188/1/2 189/1/2
f 189/1/2 188/1/2 190/1/2
f 194/2/3 192/2/3 191/2/3
f 195/2/3 192/2/3 194/2/3
f 197/2/3 194/2/3 193/2/3
f 198/6/3 195/6/3 194/6/3
f 198/2/3 194/2/3 197/2/3
f 199/2/3 196/2/3 195/2/3
f 199/6/3 195/6/3 198/6/3
f 200/2/3 196/2/3 199/2/3
f 202/2/3 199/2/3 198/2/3
f 203/2/3 199/2/3 202/2/3
f 204/1/3 202/1/3 201/1/3
f 205/1/3 202/1/3 204/1/3
f 207/4/3 205/4/3 204/4/3
f 208/1/3 206/1/3 205/1/3
f 208/4/3 205/4/3 207/4/3
f 209/1/3 206/1/3 208/1/3
f 210/1/3 208/1/3 207/1/3
f 211/1/3 208/1/3 210/1/3
f 214/2/3 213/2/3 212/2/3
f 215/2/3 213/2/3 214/2/3
f 217/4/3 215/4/3 214/4/3
f 218/2/3 216/2/3 215/2/3
f 218/4/3 215/4/3 217/4/3
f 219/2/3 216/2/3 218/2/3
f 221/2/3 218/2/3 217/2/3
f 222/2/3 218/2/3 221/2/3
f 223/1/3 220/1/3 219/1/3
f 224/1/3 220/1/3 223/1/3
f 226/1/3 223/1/3 222/1/3
f 227/6/3 224/6/3 223/6/3
f 227/1/3 223/1/3 226/1/3
f 228/6/3 224/6/3 227/6/3
f 229/1/3 225/1/3 224/1/3
f 229/6/3 224/6/3 228/6/3
f 230/1/3 225/1/3 229/1/3
f 231/1/3 229/1/3 228/1/3
f 232/1/3 229/1/3 231/1/3
f 237/1/3 234/1/3 233/1/3
f 238/1/3 234/1/3 237/1/3
f 240/1/3 236/1/3 235/1/3
f 241/4/3 237/4/3 236/4/3
f 241/1/3 236/1/3 240/1/3
f 241/4/3 238/4/3 237/4/3
f 242/1/3 239/1/3 238/1/3
f 242/4/3 238/4/3 241/4/3
f 243/1/3 239/1/3 242/1/3
f 244/1/3 242/1/3 241/1/3
f 245/1/3 242/1/3 244/1/3
f 249/2/3 247/2/3 246/2/3
f 250/2/3 247/2/3 249/2/3
f 252/2/3 249/2/3 248/2/3
f 253/2/3 249/2/3 252/2/3
f 254/6/3 250/6/3 249/6/3
f 254/2/3 249/2/3 253/2/3
f 255/2/3 251/2/3 250/2/3
f 255/6/3 250/6/3 254/6/3
f 256/2/3 251/2/3 255/2/3
f 257/2/3 255/2/3 254/2/3
f 258/2/3 255/2/3 257/2/3
f 261/1/3 260/1/3 259/1/3
f 262/1/3 261/1/3 259/1/3
f 263/1/3 261/1/3 262/1/3
f 264/1/3 261/1/3 263/1/3
f 267/1/3 266/1/3 265/1/3
f 268/1/3 266/1/3 267/1/3
f 271/1/3 270/1/3 269/1/3
f 272/1/3 270/1/3 271/1/3
f 275/1/3 274/1/3 273/1/3
f 276/1/3 274/1/3 275/1/3
f 277/2/4 278/2/4 279/2/4
f 279/2/4 278/2/4 280/2/4
f 281/2/4 282/2/4 283/2/4
f 283/2/4 282/2/4 284/2/4
f 283/4/4 284/4/4 285/4/4
f 283/4/4 285/4/4 287/4/4
f 285/2/4 286/2/4 288/2/4
f 287/4/4 285/4/4 288/4/4
f 288/2/4 286/2/4 289/2/4
f 287/2/4 288/2/4 290/2/4
f 290/2/4 288/2/4 291/2/4
f 292/1/4 293/1/4 294/1/4
f 294/1/4 293/1/4 295/1/4
f 296/2/4 297/2/4 299/2/4
f 299/2/4 297/2/4 300/2/4
f 298/2/4 299/2/4 302/2/4
f 302/2/4 299/2/4 303/2/4
f 299/6/4 300/6/4 304/6/4
f 303/2/4 299/2/4 304/2/4
f 300/2/4 301/2/4 305/2/4
f 304/6/4 300/6/4 305/6/4
f 305/2/4 301/2/4 306/2/4
f 304/2/4 305/2/4 307/2/4
f 307/2/4 305/2/4 308/2/4
f 309/1/4 310/1/4 313/1/4
f 313/1/4 310/1/4 314/1/4
f 311/1/4 312/1/4 316/1/4
f 312/4/4 313/4/4 317/4/4
f 316/1/4 312/1/4 317/1/4
f 313/4/4 314/4/4 317/4/4
f 314/1/4 315/1/4 318/1/4
f 317/4/4 314/4/4 318/4/4
f 318/1/4 315/1/4 319/1/4
f 317/1/4 318/1/4 320/1/4
f 320/1/4 318/1/4 321/1/4
f 322/1/4 323/1/4 324/1/4
f 324/1/4 323/1/4 325/1/4
f 326/1/4 327/1/4 328/1/4
f 328/1/4 327/1/4 329/1/4
f 330/1/4 331/1/4 332/1/4
f 330/1/4 332/1/4 333/1/4
f 333/1/4 332/1/4 334/1/4
f 334/1/4 332/1/4 335/1/4
f 336/2/4 337/2/4 339/2/4
f 339/2/4 337/2/4 340/2/4
f 338/2/4 339/2/4 343/2/4
f 339/6/4 340/6/4 344/6/4
f 343/2/4 339/2/4 344/2/4
f 340/6/4 341/6/4 344/6/4
f 341/2/4 342/2/4 345/2/4
f 344/6/4 341/6/4 345/6/4
f 345/2/4 342/2/4 346/2/4
f 344/2/4 345/2/4 348/2/4
f 348/2/4 345/2/4 349/2/4
f 347/1/4 348/1/4 350/1/4
f 350/1/4 348/1/4 351/1/4
f 350/4/4 351/4/4 353/4/4
f 351/1/4 352/1/4 354/1/4
f 353/4/4 351/4/4 354/4/4
f 354/1/4 352/1/4 355/1/4
f 353/1/4 354/1/4 356/1/4
f 356/1/4 354/1/4 357/1/4
f 358/1/4 359/1/4 361/1/4
f 361/1/4 359/1/4 362/1/4
f 360/1/4 361/1/4 364/1/4
f 361/6/4 362/6/4 365/6/4
f 364/1/4 361/1/4 365/1/4
f 362/1/4 363/1/4 366/1/4
f 365/6/4 362/6/4 366/6/4
f 366/1/4 363/1/4 367/1/4
f 365/1/4 366/1/4 368/1/4
f 368/1/4 366/1/4 369/1/4
f 380/1/5 373/1/5 372/1/5
f 380/4/5 374/4/5 373/4/5
f 381/4/5 374/4/5 380/4/5
f 382/1/5 375/1/5 374/1/5
f 382/4/5 374/4/5 381/4/5
f 383/4/5 378/4/5 377/4/5
f 383/2/5 377/2/5 376/2/5
f 384/2/5 379/2/5 378/2/5
f 384/4/5 378/4/5 383/4/5
f 385/1/5 381/1/5 380/1/5
f 385/5/5 382/5/5 381/5/5
f 386/1/5 375/1/5 382/1/5
f 386/5/5 382/5/5 385/5/5
f 387/1/5 385/1/5 380/1/5
f 387/1/5 386/1/5 385/1/5
f 388/1/5 375/1/5 386/1/5
f 388/1/5 386/1/5 387/1/5
f 389/1/5 387/1/5 380/1/5
f 389/5/5 388/5/5 387/5/5
f 390/1/5 375/1/5 388/1/5
f 390/5/5 388/5/5 389/5/5
f 391/2/5 383/2/5 376/2/5
f 391/5/5 384/5/5 383/5/5
f 392/2/5 379/2/5 384/2/5
f 392/5/5 384/5/5 391/5/5
f 393/1/5 389/1/5 380/1/5
f 393/1/5 390/1/5 389/1/5
f 394/1/5 375/1/5 390/1/5
f 394/1/5 390/1/5 393/1/5
f 395/2/5 391/2/5 376/2/5
f 396/4/5 392/4/5 391/4/5
f 396/2/5 391/2/5 395/2/5
f 397/2/5 379/2/5 392/2/5
f 397/4/5 392/4/5 396/4/5
f 398/2/5 379/2/5 397/2/5
f 402/1/5 400/1/5 399/1/5
f 403/1/5 400/1/5 402/1/5
f 405/1/5 393/1/5 380/1/5
f 405/5/5 394/5/5 393/5/5
f 406/1/5 375/1/5 394/1/5
f 406/5/5 394/5/5 405/5/5
f 407/1/5 404/1/5 403/1/5
f 407/1/5 403/1/5 402/1/5
f 407/1/5 402/1/5 401/1/5
f 408/1/5 404/1/5 407/1/5
f 409/1/5 404/1/5 408/1/5
f 410/1/5 404/1/5 409/1/5
f 411/1/5 409/1/5 408/1/5
f 412/1/5 409/1/5 411/1/5
f 413/1/5 406/1/5 405/1/5
f 413/1/5 405/1/5 380/1/5
f 413/1/5 380/1/5 372/1/5
f 414/1/5 375/1/5 406/1/5
f 414/1/5 406/1/5 413/1/5
f 415/2/5 371/2/5 370/2/5
f 416/2/5 371/2/5 415/2/5
f 417/1/5 413/1/5 372/1/5
f 418/4/5 414/4/5 413/4/5
f 418/1/5 413/1/5 417/1/5
f 419/1/5 375/1/5 414/1/5
f 419/4/5 414/4/5 418/4/5
f 420/1/5 375/1/5 419/1/5
f 426/2/5 422/2/5 421/2/5
f 427/1/5 426/1/5 425/1/5
f 428/2/5 422/2/5 426/2/5
f 428/1/5 426/1/5 427/1/5
f 429/3/5 428/3/5 427/3/5
f 430/2/5 422/2/5 428/2/5
f 430/3/5 428/3/5 429/3/5
f 431/1/5 430/1/5 429/1/5
f 432/1/5 430/1/5 431/1/5
f 433/1/5 430/1/5 432/1/5
f 434/2/5 422/2/5 430/2/5
f 434/1/5 430/1/5 433/1/5
f 436/2/5 422/2/5 434/2/5
f 437/1/5 436/1/5 435/1/5
f 438/2/5 422/2/5 436/2/5
f 438/1/5 436/1/5 437/1/5
f 439/2/5 422/2/5 438/2/5
f 440/2/5 424/2/5 423/2/5
f 441/2/5 424/2/5 440/2/5
f 442/1/5 438/1/5 437/1/5
f 443/1/5 438/1/5 442/1/5
f 446/1/5 445/1/5 444/1/5
f 447/1/5 446/1/5 444/1/5
f 448/1/5 447/1/5 444/1/5
f 451/1/5 447/1/5 448/1/5
f 452/1/5 447/1/5 451/1/5
f 453/1/5 450/1/5 449/1/5
f 454/1/5 450/1/5 453/1/5
f 459/1/5 456/1/5 455/1/5
f 460/1/5 456/1/5 459/1/5
f 461/1/5 458/1/5 457/1/5
f 462/1/5 458/1/5 461/1/5
f 465/2/5 464/2/5 463/2/5
f 466/2/5 465/2/5 463/2/5
f 467/2/5 466/2/5 463/2/5
f 468/2/5 466/2/5 467/2/5
f 475/2/6 476/2/6 477/2/6
f 469/1/6 470/1/6 478/1/6
f 478/1/6 470/1/6 479/1/6
f 475/2/6 477/2/6 480/2/6
f 473/2/6 474/2/6 481/2/6
f 473/2/6 481/2/6 483/2/6
f 481/4/6 482/4/6 484/4/6
f 483/2/6 481/2/6 484/2/6
f 484/4/6 482/4/6 485/4/6
f 475/2/6 480/2/6 486/2/6
f 486/2/6 480/2/6 487/2/6
f 488/1/6 489/1/6 490/1/6
f 490/1/6 489/1/6 491/1/6
f 492/1/6 493/1/6 494/1/6
f 494/1/6 493/1/6 495/1/6
f 471/1/6 472/1/6 496/1/6
f 496/1/6 472/1/6 497/1/6
f 498/1/6 499/1/6 502/1/6
f 502/1/6 499/1/6 503/1/6
f 500/2/6 501/2/6 504/2/6
f 504/2/6 501/2/6 505/2/6
f 505/2/6 501/2/6 506/2/6
f 506/2/6 501/2/6 507/2/6
f 508/1/6 509/1/6 511/1/6
f 511/1/6 509/1/6 512/1/6
f 512/1/6 509/1/6 513/1/6
f 503/1/6 499/1/6 515/1/6
f 511/1/6 512/1/6 516/1/6
f 510/1/6 511/1/6 516/1/6
f 516/1/6 512/1/6 517/1/6
f 512/4/6 513/4/6 518/4/6
f 517/1/6 512/1/6 518/1/6
f 518/4/6 513/4/6 519/4/6
f 517/1/6 518/1/6 520/1/6
f 518/1/6 519/1/6 520/1/6
f 520/1/6 519/1/6 521/1/6
f 514/1/6 515/1/6 522/1/6
f 515/1/6 499/1/6 523/1/6
f 522/1/6 515/1/6 523/1/6
f 524/2/6 525/2/6 528/2/6
f 528/2/6 525/2/6 529/2/6
f 526/2/6 527/2/6 530/2/6
f 530/2/6 527/2/6 531/2/6
f 532/2/6 533/2/6 534/2/6
f 534/2/6 533/2/6 535/2/6
f 536/2/6 537/2/6 541/2/6
f 541/2/6 537/2/6 542/2/6
f 540/1/6 541/1/6 546/1/6
f 541/2/6 542/2/6 546/2/6
f 542/1/6 543/1/6 547/1/6
f 546/2/6 542/2/6 547/2/6
f 547/1/6 543/1/6 548/1/6
f 540/1/6 546/1/6 549/1/6
f 540/1/6 549/1/6 550/1/6
f 540/1/6 550/1/6 551/1/6
f 551/2/6 552/2/6 554/2/6
f 552/1/6 553/1/6 554/1/6
f 554/1/6 553/1/6 555/1/6
f 544/1/6 545/1/6 556/1/6
f 556/1/6 545/1/6 557/1/6
f 551/2/6 554/2/6 558/2/6
f 540/1/6 551/1/6 558/1/6
f 558/2/6 554/2/6 559/2/6
f 538/1/6 539/1/6 560/1/6
f 560/1/6 539/1/6 561/1/6
f 540/1/6 558/1/6 562/1/6
f 562/1/6 558/1/6 563/1/6
f 564/1/6 565/1/6 568/1/6
f 566/1/6 567/1/6 569/1/6
f 569/1/6 567/1/6 570/1/6
f 564/1/6 568/1/6 571/1/6
f 572/1/6 573/1/6 574/1/6
f 574/1/6 573/1/6 575/1/6
f 564/1/6 571/1/6 576/1/6
f 576/1/6 571/1/6 577/1/6
f 578/2/6 579/2/6 582/2/6
f 582/2/6 579/2/6 583/2/6
f 580/2/6 581/2/6 584/2/6
f 584/2/6 581/2/6 585/2/6
f 586/2/6 587/2/6 588/2/6
f 588/2/6 587/2/6 589/2/6
