# MagicaVoxel @ Ephtracy

# group
o CupboardBigDoor

# material
mtllib CupboardDrawers.mtl
usemtl palette

# normals
vn -1 0 0
vn 1 0 0
vn 0 0 1
vn 0 0 -1
vn 0 -1 0
vn 0 1 0

# texcoords
vt 0.416016 0.5
vt 0.552734 0.5
vt 0.931641 0.5

# verts
v -1.2 0 0.9
v -1.2 0 -1.2
v -1.2 0.2 1
v -1.2 0.2 0.9
v -1.2 2.2 1.2
v -1.2 2.2 1.1
v -1.2 2.2 1
v -1.2 2.3 1.1
v -1.2 2.3 -1.2
v -1.2 2.4 1.2
v -1.2 2.4 -1.2
v -1 0.4 1.1
v -1 0.4 1
v -1 0.9 1.1
v -1 0.9 1
v -1 1 1.1
v -1 1 1
v -1 1.5 1.1
v -1 1.5 1
v -1 1.6 1.1
v -1 1.6 1
v -1 2.1 1.1
v -1 2.1 1
v -0.3 0.6 1.2
v -0.3 0.6 1.1
v -0.3 0.8 1.2
v -0.3 0.8 1.1
v -0.3 1.2 1.2
v -0.3 1.2 1.1
v -0.3 1.4 1.2
v -0.3 1.4 1.1
v -0.3 1.8 1.2
v -0.3 1.8 1.1
v -0.3 2 1.2
v -0.3 2 1.1
v 0.3 0.6 1.2
v 0.3 0.6 1.1
v 0.3 0.8 1.2
v 0.3 0.8 1.1
v 0.3 1.2 1.2
v 0.3 1.2 1.1
v 0.3 1.4 1.2
v 0.3 1.4 1.1
v 0.3 1.8 1.2
v 0.3 1.8 1.1
v 0.3 2 1.2
v 0.3 2 1.1
v 1 0.4 1.1
v 1 0.4 1
v 1 0.9 1.1
v 1 0.9 1
v 1 1 1.1
v 1 1 1
v 1 1.5 1.1
v 1 1.5 1
v 1 1.6 1.1
v 1 1.6 1
v 1 2.1 1.1
v 1 2.1 1
v 1.2 0 0.9
v 1.2 0 -1.2
v 1.2 0.2 1
v 1.2 0.2 0.9
v 1.2 2.2 1.2
v 1.2 2.2 1.1
v 1.2 2.2 1
v 1.2 2.3 1.1
v 1.2 2.3 -1.2
v 1.2 2.4 1.2
v 1.2 2.4 -1.2
v -1.2 2.2 1.2
v -1.2 2.4 1.2
v -0.3 0.6 1.2
v -0.3 0.8 1.2
v -0.3 1.2 1.2
v -0.3 1.4 1.2
v -0.3 1.8 1.2
v -0.3 2 1.2
v 0.3 0.6 1.2
v 0.3 0.8 1.2
v 0.3 1.2 1.2
v 0.3 1.4 1.2
v 0.3 1.8 1.2
v 0.3 2 1.2
v 1.2 2.2 1.2
v 1.2 2.4 1.2
v -1 0.4 1.1
v -1 0.9 1.1
v -1 1 1.1
v -1 1.5 1.1
v -1 1.6 1.1
v -1 2.1 1.1
v -0.4 0.6 1.1
v -0.4 0.8 1.1
v -0.4 1.2 1.1
v -0.4 1.4 1.1
v -0.4 1.8 1.1
v -0.4 2 1.1
v -0.3 0.6 1.1
v -0.3 0.8 1.1
v -0.3 1.2 1.1
v -0.3 1.4 1.1
v -0.3 1.8 1.1
v -0.3 2 1.1
v 0.3 0.6 1.1
v 0.3 0.8 1.1
v 0.3 1.2 1.1
v 0.3 1.4 1.1
v 0.3 1.8 1.1
v 0.3 2 1.1
v 0.4 0.6 1.1
v 0.4 0.8 1.1
v 0.4 1.2 1.1
v 0.4 1.4 1.1
v 0.4 1.8 1.1
v 0.4 2 1.1
v 1 0.4 1.1
v 1 0.9 1.1
v 1 1 1.1
v 1 1.5 1.1
v 1 1.6 1.1
v 1 2.1 1.1
v -1.2 0.2 1
v -1.2 2.2 1
v -1.1 2.2 1
v -1 0.4 1
v -1 0.9 1
v -1 1 1
v -1 1.5 1
v -1 1.6 1
v -1 2.1 1
v 1 0.4 1
v 1 0.9 1
v 1 1 1
v 1 1.5 1
v 1 1.6 1
v 1 2.1 1
v 1.1 2.2 1
v 1.2 0.2 1
v 1.2 2.2 1
v -1.2 0 0.9
v -1.2 0.2 0.9
v 1.2 0 0.9
v 1.2 0.2 0.9
v -1.2 0 -1.2
v -1.2 2.3 -1.2
v -1.2 2.4 -1.2
v 1.2 0 -1.2
v 1.2 2.3 -1.2
v 1.2 2.4 -1.2
v -1.2 0 0.9
v 1.2 0 0.9
v -1.2 0 -1.2
v 1.2 0 -1.2
v -1.2 0.2 1
v 1.2 0.2 1
v -1.2 0.2 0.9
v 1.2 0.2 0.9
v -1 0.4 1.1
v 1 0.4 1.1
v -1 0.4 1
v 1 0.4 1
v -0.3 0.6 1.2
v 0.3 0.6 1.2
v -0.3 0.6 1.1
v 0.3 0.6 1.1
v -1 1 1.1
v 1 1 1.1
v -1 1 1
v 1 1 1
v -0.3 1.2 1.2
v 0.3 1.2 1.2
v -0.3 1.2 1.1
v 0.3 1.2 1.1
v -1 1.6 1.1
v 1 1.6 1.1
v -1 1.6 1
v 1 1.6 1
v -0.3 1.8 1.2
v 0.3 1.8 1.2
v -0.3 1.8 1.1
v 0.3 1.8 1.1
v -1.2 2.2 1.2
v 1.2 2.2 1.2
v -1.2 2.2 1.1
v -1.1 2.2 1.1
v 1.1 2.2 1.1
v 1.2 2.2 1.1
v -1.2 2.2 1
v -1.1 2.2 1
v 1.1 2.2 1
v 1.2 2.2 1
v -0.3 0.8 1.2
v 0.3 0.8 1.2
v -0.3 0.8 1.1
v 0.3 0.8 1.1
v -1 0.9 1.1
v 1 0.9 1.1
v -1 0.9 1
v 1 0.9 1
v -0.3 1.4 1.2
v 0.3 1.4 1.2
v -0.3 1.4 1.1
v 0.3 1.4 1.1
v -1 1.5 1.1
v 1 1.5 1.1
v -1 1.5 1
v 1 1.5 1
v -0.3 2 1.2
v 0.3 2 1.2
v -0.3 2 1.1
v 0.3 2 1.1
v -1 2.1 1.1
v 1 2.1 1.1
v -1 2.1 1
v 1 2.1 1
v -1.2 2.4 1.2
v 1.2 2.4 1.2
v -1.2 2.4 -1.2
v 1.2 2.4 -1.2

# faces
f 4/1/1 2/1/1 1/1/1
f 7/1/1 4/1/1 3/1/1
f 8/2/1 6/2/1 5/2/1
f 8/1/1 7/1/1 6/1/1
f 9/1/1 2/1/1 4/1/1
f 9/1/1 7/1/1 8/1/1
f 9/1/1 4/1/1 7/1/1
f 10/2/1 8/2/1 5/2/1
f 10/2/1 9/2/1 8/2/1
f 11/2/1 9/2/1 10/2/1
f 14/2/1 13/2/1 12/2/1
f 15/2/1 13/2/1 14/2/1
f 18/2/1 17/2/1 16/2/1
f 19/2/1 17/2/1 18/2/1
f 22/2/1 21/2/1 20/2/1
f 23/2/1 21/2/1 22/2/1
f 26/3/1 25/3/1 24/3/1
f 27/3/1 25/3/1 26/3/1
f 30/3/1 29/3/1 28/3/1
f 31/3/1 29/3/1 30/3/1
f 34/3/1 33/3/1 32/3/1
f 35/3/1 33/3/1 34/3/1
f 36/3/2 37/3/2 38/3/2
f 38/3/2 37/3/2 39/3/2
f 40/3/2 41/3/2 42/3/2
f 42/3/2 41/3/2 43/3/2
f 44/3/2 45/3/2 46/3/2
f 46/3/2 45/3/2 47/3/2
f 48/2/2 49/2/2 50/2/2
f 50/2/2 49/2/2 51/2/2
f 52/2/2 53/2/2 54/2/2
f 54/2/2 53/2/2 55/2/2
f 56/2/2 57/2/2 58/2/2
f 58/2/2 57/2/2 59/2/2
f 60/1/2 61/1/2 63/1/2
f 62/1/2 63/1/2 66/1/2
f 64/2/2 65/2/2 67/2/2
f 65/1/2 66/1/2 67/1/2
f 63/1/2 61/1/2 68/1/2
f 67/1/2 66/1/2 68/1/2
f 66/1/2 63/1/2 68/1/2
f 64/2/2 67/2/2 69/2/2
f 67/2/2 68/2/2 69/2/2
f 69/2/2 68/2/2 70/2/2
f 79/3/3 74/3/3 73/3/3
f 80/3/3 74/3/3 79/3/3
f 81/3/3 76/3/3 75/3/3
f 82/3/3 76/3/3 81/3/3
f 83/3/3 78/3/3 77/3/3
f 84/3/3 78/3/3 83/3/3
f 85/2/3 72/2/3 71/2/3
f 86/2/3 72/2/3 85/2/3
f 93/2/3 88/2/3 87/2/3
f 94/2/3 88/2/3 93/2/3
f 95/2/3 90/2/3 89/2/3
f 96/2/3 90/2/3 95/2/3
f 97/2/3 92/2/3 91/2/3
f 98/2/3 92/2/3 97/2/3
f 99/2/3 93/2/3 87/2/3
f 99/3/3 94/3/3 93/3/3
f 100/2/3 88/2/3 94/2/3
f 100/3/3 94/3/3 99/3/3
f 101/2/3 95/2/3 89/2/3
f 101/3/3 96/3/3 95/3/3
f 102/2/3 90/2/3 96/2/3
f 102/3/3 96/3/3 101/3/3
f 103/3/3 98/3/3 97/3/3
f 103/2/3 97/2/3 91/2/3
f 104/2/3 92/2/3 98/2/3
f 104/3/3 98/3/3 103/3/3
f 105/2/3 99/2/3 87/2/3
f 106/2/3 88/2/3 100/2/3
f 107/2/3 101/2/3 89/2/3
f 108/2/3 90/2/3 102/2/3
f 109/2/3 103/2/3 91/2/3
f 110/2/3 92/2/3 104/2/3
f 111/3/3 106/3/3 105/3/3
f 111/2/3 105/2/3 87/2/3
f 112/2/3 88/2/3 106/2/3
f 112/3/3 106/3/3 111/3/3
f 113/3/3 108/3/3 107/3/3
f 113/2/3 107/2/3 89/2/3
f 114/2/3 90/2/3 108/2/3
f 114/3/3 108/3/3 113/3/3
f 115/3/3 110/3/3 109/3/3
f 115/2/3 109/2/3 91/2/3
f 116/2/3 92/2/3 110/2/3
f 116/3/3 110/3/3 115/3/3
f 117/2/3 112/2/3 111/2/3
f 117/2/3 111/2/3 87/2/3
f 118/2/3 88/2/3 112/2/3
f 118/2/3 112/2/3 117/2/3
f 119/2/3 114/2/3 113/2/3
f 119/2/3 113/2/3 89/2/3
f 120/2/3 90/2/3 114/2/3
f 120/2/3 114/2/3 119/2/3
f 121/2/3 115/2/3 91/2/3
f 121/2/3 116/2/3 115/2/3
f 122/2/3 92/2/3 116/2/3
f 122/2/3 116/2/3 121/2/3
f 125/1/3 124/1/3 123/1/3
f 126/1/3 125/1/3 123/1/3
f 127/1/3 125/1/3 126/1/3
f 128/1/3 125/1/3 127/1/3
f 129/1/3 125/1/3 128/1/3
f 130/1/3 125/1/3 129/1/3
f 131/1/3 125/1/3 130/1/3
f 132/1/3 126/1/3 123/1/3
f 133/1/3 128/1/3 127/1/3
f 134/1/3 128/1/3 133/1/3
f 135/1/3 130/1/3 129/1/3
f 136/1/3 130/1/3 135/1/3
f 137/1/3 125/1/3 131/1/3
f 138/1/3 136/1/3 135/1/3
f 138/1/3 137/1/3 136/1/3
f 138/1/3 125/1/3 137/1/3
f 138/1/3 134/1/3 133/1/3
f 138/1/3 135/1/3 134/1/3
f 138/1/3 133/1/3 132/1/3
f 139/1/3 132/1/3 123/1/3
f 139/1/3 138/1/3 132/1/3
f 140/1/3 138/1/3 139/1/3
f 143/1/3 142/1/3 141/1/3
f 144/1/3 142/1/3 143/1/3
f 145/1/4 146/1/4 148/1/4
f 146/2/4 147/2/4 149/2/4
f 148/1/4 146/1/4 149/1/4
f 149/2/4 147/2/4 150/2/4
f 153/1/5 152/1/5 151/1/5
f 154/1/5 152/1/5 153/1/5
f 157/1/5 156/1/5 155/1/5
f 158/1/5 156/1/5 157/1/5
f 161/2/5 160/2/5 159/2/5
f 162/2/5 160/2/5 161/2/5
f 165/3/5 164/3/5 163/3/5
f 166/3/5 164/3/5 165/3/5
f 169/2/5 168/2/5 167/2/5
f 170/2/5 168/2/5 169/2/5
f 173/3/5 172/3/5 171/3/5
f 174/3/5 172/3/5 173/3/5
f 177/2/5 176/2/5 175/2/5
f 178/2/5 176/2/5 177/2/5
f 181/3/5 180/3/5 179/3/5
f 182/3/5 180/3/5 181/3/5
f 185/2/5 184/2/5 183/2/5
f 186/2/5 184/2/5 185/2/5
f 187/2/5 184/2/5 186/2/5
f 188/2/5 184/2/5 187/2/5
f 189/1/5 186/1/5 185/1/5
f 190/2/5 187/2/5 186/2/5
f 190/1/5 186/1/5 189/1/5
f 191/1/5 188/1/5 187/1/5
f 191/2/5 187/2/5 190/2/5
f 192/1/5 188/1/5 191/1/5
f 193/3/6 194/3/6 195/3/6
f 195/3/6 194/3/6 196/3/6
f 197/2/6 198/2/6 199/2/6
f 199/2/6 198/2/6 200/2/6
f 201/3/6 202/3/6 203/3/6
f 203/3/6 202/3/6 204/3/6
f 205/2/6 206/2/6 207/2/6
f 207/2/6 206/2/6 208/2/6
f 209/3/6 210/3/6 211/3/6
f 211/3/6 210/3/6 212/3/6
f 213/2/6 214/2/6 215/2/6
f 215/2/6 214/2/6 216/2/6
f 217/2/6 218/2/6 219/2/6
f 219/2/6 218/2/6 220/2/6
