# MagicaVoxel @ Ephtracy

# group
o CupboardBigDoor

# material
mtllib CupboardBigDoor.mtl
usemtl palette

# normals
vn -1 0 0
vn 1 0 0
vn 0 0 1
vn 0 0 -1
vn 0 -1 0
vn 0 1 0

# texcoords
vt 0.416016 0.5
vt 0.552734 0.5
vt 0.931641 0.5

# verts
v -1.2 0 0.9
v -1.2 0 -1.2
v -1.2 0.2 1
v -1.2 0.2 0.9
v -1.2 2.2 1.2
v -1.2 2.2 1.1
v -1.2 2.2 1
v -1.2 2.3 1.1
v -1.2 2.3 -1.2
v -1.2 2.4 1.2
v -1.2 2.4 -1.2
v -1.1 0.6 1.1
v -1.1 0.6 1
v -1.1 0.8 1.1
v -1.1 0.8 1
v -1.1 1.7 1.1
v -1.1 1.7 1
v -1.1 1.9 1.1
v -1.1 1.9 1
v -1 0.4 1.1
v -1 0.4 1
v -1 0.6 1.1
v -1 0.6 1
v -1 0.8 1.1
v -1 0.8 1
v -1 1.7 1.1
v -1 1.7 1
v -1 1.9 1.1
v -1 1.9 1
v -1 2.1 1.1
v -1 2.1 1
v 0.7 0.9 1.2
v 0.7 0.9 1.1
v 0.7 1.5 1.2
v 0.7 1.5 1.1
v 0.9 0.9 1.2
v 0.9 0.9 1.1
v 0.9 1.5 1.2
v 0.9 1.5 1.1
v 1 0.4 1.1
v 1 0.4 1
v 1 2.1 1.1
v 1 2.1 1
v 1.2 0 0.9
v 1.2 0 -1.2
v 1.2 0.2 1
v 1.2 0.2 0.9
v 1.2 2.2 1.2
v 1.2 2.2 1.1
v 1.2 2.2 1
v 1.2 2.3 1.1
v 1.2 2.3 -1.2
v 1.2 2.4 1.2
v 1.2 2.4 -1.2
v -1.2 2.2 1.2
v -1.2 2.4 1.2
v 0.7 0.9 1.2
v 0.7 1.5 1.2
v 0.9 0.9 1.2
v 0.9 1.5 1.2
v 1.2 2.2 1.2
v 1.2 2.4 1.2
v -1.1 0.6 1.1
v -1.1 0.8 1.1
v -1.1 1.7 1.1
v -1.1 1.9 1.1
v -1 0.4 1.1
v -1 0.6 1.1
v -1 0.8 1.1
v -1 1.7 1.1
v -1 1.9 1.1
v -1 2.1 1.1
v -0.9 0.6 1.1
v -0.9 0.8 1.1
v -0.9 1.7 1.1
v -0.9 1.9 1.1
v 0.7 0.8 1.1
v 0.7 0.9 1.1
v 0.7 1.5 1.1
v 0.7 1.6 1.1
v 0.9 0.8 1.1
v 0.9 0.9 1.1
v 0.9 1.5 1.1
v 0.9 1.6 1.1
v 1 0.4 1.1
v 1 2.1 1.1
v -1.2 0.2 1
v -1.2 2.2 1
v -1.1 0.6 1
v -1.1 0.8 1
v -1.1 1.7 1
v -1.1 1.9 1
v -1.1 2.2 1
v -1 0.4 1
v -1 0.6 1
v -1 0.8 1
v -1 1.7 1
v -1 1.9 1
v -1 2.1 1
v 1 0.4 1
v 1 2.1 1
v 1.1 2.2 1
v 1.2 0.2 1
v 1.2 2.2 1
v -1.2 0 0.9
v -1.2 0.2 0.9
v 1.2 0 0.9
v 1.2 0.2 0.9
v -1.2 0 -1.2
v -1.2 2.3 -1.2
v -1.2 2.4 -1.2
v 1.2 0 -1.2
v 1.2 2.3 -1.2
v 1.2 2.4 -1.2
v -1.2 0 0.9
v 1.2 0 0.9
v -1.2 0 -1.2
v 1.2 0 -1.2
v -1.2 0.2 1
v 1.2 0.2 1
v -1.2 0.2 0.9
v 1.2 0.2 0.9
v -1 0.4 1.1
v 1 0.4 1.1
v -1 0.4 1
v 1 0.4 1
v -1.1 0.6 1.1
v -1 0.6 1.1
v -1.1 0.6 1
v -1 0.6 1
v 0.7 0.9 1.2
v 0.9 0.9 1.2
v 0.7 0.9 1.1
v 0.9 0.9 1.1
v -1.1 1.7 1.1
v -1 1.7 1.1
v -1.1 1.7 1
v -1 1.7 1
v -1.2 2.2 1.2
v 1.2 2.2 1.2
v -1.2 2.2 1.1
v -1.1 2.2 1.1
v 1.1 2.2 1.1
v 1.2 2.2 1.1
v -1.2 2.2 1
v -1.1 2.2 1
v 1.1 2.2 1
v 1.2 2.2 1
v -1.1 0.8 1.1
v -1 0.8 1.1
v -1.1 0.8 1
v -1 0.8 1
v 0.7 1.5 1.2
v 0.9 1.5 1.2
v 0.7 1.5 1.1
v 0.9 1.5 1.1
v -1.1 1.9 1.1
v -1 1.9 1.1
v -1.1 1.9 1
v -1 1.9 1
v -1 2.1 1.1
v 1 2.1 1.1
v -1 2.1 1
v 1 2.1 1
v -1.2 2.4 1.2
v 1.2 2.4 1.2
v -1.2 2.4 -1.2
v 1.2 2.4 -1.2

# faces
f 4/1/1 2/1/1 1/1/1
f 7/1/1 4/1/1 3/1/1
f 8/2/1 6/2/1 5/2/1
f 8/1/1 7/1/1 6/1/1
f 9/1/1 2/1/1 4/1/1
f 9/1/1 7/1/1 8/1/1
f 9/1/1 4/1/1 7/1/1
f 10/2/1 8/2/1 5/2/1
f 10/2/1 9/2/1 8/2/1
f 11/2/1 9/2/1 10/2/1
f 14/3/1 13/3/1 12/3/1
f 15/3/1 13/3/1 14/3/1
f 18/3/1 17/3/1 16/3/1
f 19/3/1 17/3/1 18/3/1
f 22/2/1 21/2/1 20/2/1
f 23/2/1 21/2/1 22/2/1
f 26/2/1 25/2/1 24/2/1
f 27/2/1 25/2/1 26/2/1
f 30/2/1 29/2/1 28/2/1
f 31/2/1 29/2/1 30/2/1
f 34/3/1 33/3/1 32/3/1
f 35/3/1 33/3/1 34/3/1
f 36/3/2 37/3/2 38/3/2
f 38/3/2 37/3/2 39/3/2
f 40/2/2 41/2/2 42/2/2
f 42/2/2 41/2/2 43/2/2
f 44/1/2 45/1/2 47/1/2
f 46/1/2 47/1/2 50/1/2
f 48/2/2 49/2/2 51/2/2
f 49/1/2 50/1/2 51/1/2
f 47/1/2 45/1/2 52/1/2
f 51/1/2 50/1/2 52/1/2
f 50/1/2 47/1/2 52/1/2
f 48/2/2 51/2/2 53/2/2
f 51/2/2 52/2/2 53/2/2
f 53/2/2 52/2/2 54/2/2
f 59/3/3 58/3/3 57/3/3
f 60/3/3 58/3/3 59/3/3
f 61/2/3 56/2/3 55/2/3
f 62/2/3 56/2/3 61/2/3
f 68/3/3 64/3/3 63/3/3
f 69/3/3 64/3/3 68/3/3
f 70/3/3 66/3/3 65/3/3
f 71/3/3 66/3/3 70/3/3
f 73/3/3 69/3/3 68/3/3
f 73/2/3 68/2/3 67/2/3
f 74/2/3 70/2/3 69/2/3
f 74/3/3 69/3/3 73/3/3
f 75/3/3 71/3/3 70/3/3
f 75/2/3 70/2/3 74/2/3
f 76/2/3 72/2/3 71/2/3
f 76/3/3 71/3/3 75/3/3
f 77/2/3 75/2/3 74/2/3
f 77/2/3 74/2/3 73/2/3
f 77/2/3 76/2/3 75/2/3
f 78/2/3 76/2/3 77/2/3
f 79/2/3 76/2/3 78/2/3
f 80/2/3 76/2/3 79/2/3
f 81/2/3 77/2/3 73/2/3
f 81/3/3 78/3/3 77/3/3
f 82/3/3 78/3/3 81/3/3
f 83/3/3 80/3/3 79/3/3
f 84/2/3 76/2/3 80/2/3
f 84/3/3 80/3/3 83/3/3
f 85/2/3 73/2/3 67/2/3
f 85/2/3 83/2/3 82/2/3
f 85/2/3 84/2/3 83/2/3
f 85/2/3 82/2/3 81/2/3
f 85/2/3 81/2/3 73/2/3
f 86/2/3 72/2/3 76/2/3
f 86/2/3 84/2/3 85/2/3
f 86/2/3 76/2/3 84/2/3
f 89/1/3 88/1/3 87/1/3
f 90/1/3 88/1/3 89/1/3
f 91/1/3 88/1/3 90/1/3
f 92/1/3 88/1/3 91/1/3
f 93/1/3 88/1/3 92/1/3
f 94/1/3 89/1/3 87/1/3
f 95/1/3 89/1/3 94/1/3
f 96/1/3 91/1/3 90/1/3
f 97/1/3 91/1/3 96/1/3
f 98/1/3 93/1/3 92/1/3
f 99/1/3 93/1/3 98/1/3
f 100/1/3 94/1/3 87/1/3
f 101/1/3 93/1/3 99/1/3
f 102/1/3 93/1/3 101/1/3
f 102/1/3 101/1/3 100/1/3
f 103/1/3 100/1/3 87/1/3
f 103/1/3 102/1/3 100/1/3
f 104/1/3 102/1/3 103/1/3
f 107/1/3 106/1/3 105/1/3
f 108/1/3 106/1/3 107/1/3
f 109/1/4 110/1/4 112/1/4
f 110/2/4 111/2/4 113/2/4
f 112/1/4 110/1/4 113/1/4
f 113/2/4 111/2/4 114/2/4
f 117/1/5 116/1/5 115/1/5
f 118/1/5 116/1/5 117/1/5
f 121/1/5 120/1/5 119/1/5
f 122/1/5 120/1/5 121/1/5
f 125/2/5 124/2/5 123/2/5
f 126/2/5 124/2/5 125/2/5
f 129/3/5 128/3/5 127/3/5
f 130/3/5 128/3/5 129/3/5
f 133/3/5 132/3/5 131/3/5
f 134/3/5 132/3/5 133/3/5
f 137/3/5 136/3/5 135/3/5
f 138/3/5 136/3/5 137/3/5
f 141/2/5 140/2/5 139/2/5
f 142/2/5 140/2/5 141/2/5
f 143/2/5 140/2/5 142/2/5
f 144/2/5 140/2/5 143/2/5
f 145/1/5 142/1/5 141/1/5
f 146/2/5 143/2/5 142/2/5
f 146/1/5 142/1/5 145/1/5
f 147/1/5 144/1/5 143/1/5
f 147/2/5 143/2/5 146/2/5
f 148/1/5 144/1/5 147/1/5
f 149/3/6 150/3/6 151/3/6
f 151/3/6 150/3/6 152/3/6
f 153/3/6 154/3/6 155/3/6
f 155/3/6 154/3/6 156/3/6
f 157/3/6 158/3/6 159/3/6
f 159/3/6 158/3/6 160/3/6
f 161/2/6 162/2/6 163/2/6
f 163/2/6 162/2/6 164/2/6
f 165/2/6 166/2/6 167/2/6
f 167/2/6 166/2/6 168/2/6
